<svg width="22" height="22" viewBox="0 0 22 22" fill="none" xmlns="http://www.w3.org/2000/svg">
<g clip-path="url(#clip0_277_53919)">
<path d="M10.9786 21.9831C16.8268 21.9831 21.577 17.0633 21.577 10.9958C21.577 4.92827 16.8268 0 10.9786 0C5.13025 0 0.388184 4.92827 0.388184 10.9958C0.388184 17.0633 5.13025 21.9831 10.9786 21.9831ZM10.9786 20.4134C5.95991 20.4134 1.90108 16.2025 1.90108 10.9958C1.90108 5.78903 5.95991 1.57806 10.9786 1.57806C15.9972 1.57806 20.0559 5.78903 20.0559 10.9958C20.0559 16.2025 15.9972 20.4134 10.9786 20.4134Z" fill="white"/>
<path d="M6.1226 16.5402H15.8182C16.1924 16.5402 16.3714 16.287 16.3714 15.9157C16.3714 14.7258 14.6469 11.5782 10.9704 11.5782C7.30201 11.5782 5.57764 14.7258 5.57764 15.9157C5.57764 16.287 5.74845 16.5402 6.1226 16.5402ZM10.9704 10.6921C12.459 10.7005 13.6546 9.39248 13.6546 7.65409C13.6546 6.01696 12.459 4.66675 10.9704 4.66675C9.48191 4.66675 8.28622 6.01696 8.28622 7.65409C8.28622 9.39248 9.48191 10.6836 10.9704 10.6921Z" fill="white"/>
</g>
<defs>
<clipPath id="clip0_277_53919">
<rect width="21.6118" height="22" fill="white" transform="translate(0.388184)"/>
</clipPath>
</defs>
</svg>
