<svg width="24" height="25" viewBox="0 0 24 25" fill="none" xmlns="http://www.w3.org/2000/svg">
<path d="M2 20.125C2 20.7969 2.39062 21.1797 3.04688 21.1797C3.28125 21.1797 3.52344 21.1094 3.8125 20.9453L8.19531 18.5625V2.125C8.00781 2.20312 7.80469 2.30469 7.60938 2.41406L2.8125 5.21094C2.26562 5.51562 2 5.9375 2 6.5625V20.125ZM9.4375 18.4297L14.4922 21.3281C14.6484 21.4141 14.8047 21.4844 14.9531 21.5234V5.25781L10.0234 2.24219C9.84375 2.13281 9.64062 2.04688 9.4375 2V18.4297ZM16.2031 21.4922C16.3125 21.4531 16.4297 21.4062 16.5391 21.3359L21.7344 18.3594C22.2734 18.0469 22.5391 17.6328 22.5391 17V3.42969C22.5391 2.75 22.1406 2.375 21.5 2.375C21.2656 2.375 21.0234 2.44531 20.7344 2.60938L16.2031 5.10938V21.4922Z" fill="white" fill-opacity="0.85"/>
</svg>
