<svg width="21" height="23" viewBox="0 0 21 23" fill="none" xmlns="http://www.w3.org/2000/svg">
<g clip-path="url(#clip0_277_53908)">
<path d="M10.319 20.75C15.5071 20.75 19.7204 16.4609 19.7204 11.1797C19.7204 5.89844 15.5071 1.60938 10.319 1.60938C5.13097 1.60938 0.917603 5.89844 0.917603 11.1797C0.917603 16.4609 5.13097 20.75 10.319 20.75ZM10.319 19.2812C5.92146 19.2812 2.36043 15.6562 2.36043 11.1797C2.36043 6.71094 5.92146 3.08594 10.319 3.08594C14.709 3.08594 18.27 6.71094 18.27 11.1797C18.27 15.6562 14.709 19.2812 10.319 19.2812ZM2.39113 4.07031C2.54462 4.07031 2.64439 4.04688 2.78254 3.9375L6.0289 1.5C6.19008 1.375 6.27449 1.21875 6.27449 1.05469C6.27449 0.84375 6.17472 0.671875 6.00589 0.515625C5.62983 0.171875 4.98515 0 4.40189 0C2.87464 0 1.68507 1.21094 1.68507 2.73438C1.68507 3.08594 1.73879 3.44531 1.83856 3.67188C1.94601 3.91406 2.14554 4.07031 2.39113 4.07031ZM18.2392 4.07031C18.4925 4.07031 18.6843 3.90625 18.7918 3.67188C18.8993 3.45312 18.953 3.08594 18.953 2.73438C18.953 1.21094 17.7557 0 16.2362 0C15.6529 0 15.0083 0.171875 14.6321 0.515625C14.4556 0.671875 14.3636 0.84375 14.3636 1.05469C14.3636 1.21875 14.4479 1.375 14.6091 1.5L17.8479 3.9375C17.986 4.04688 18.0935 4.07031 18.2392 4.07031ZM2.18391 20.4688C2.43718 20.7344 2.84394 20.7344 3.11255 20.4609L4.95446 18.5859L4.04885 17.6641L2.1916 19.5469C1.93065 19.8047 1.93065 20.2188 2.18391 20.4688ZM18.4542 20.4688C18.7074 20.2188 18.7074 19.8047 18.4465 19.5469L16.5892 17.6641L15.6835 18.5859L17.5255 20.4609C17.7865 20.7344 18.2009 20.7344 18.4542 20.4688Z" fill="white"/>
<path d="M5.62218 12.2109H10.3114C10.6491 12.2109 10.91 11.9453 10.91 11.6016V5.25781C10.91 4.92188 10.6491 4.65625 10.3114 4.65625C9.98137 4.65625 9.72044 4.92188 9.72044 5.25781V11H5.62218C5.28449 11 5.02356 11.2656 5.02356 11.6016C5.02356 11.9453 5.28449 12.2109 5.62218 12.2109Z" fill="white" fill-opacity="0.85"/>
</g>
<defs>
<clipPath id="clip0_277_53908">
<rect width="19.202" height="22.4453" fill="white" transform="translate(0.917603)"/>
</clipPath>
</defs>
</svg>
