<svg width="31" height="21" viewBox="0 0 31 21" fill="none" xmlns="http://www.w3.org/2000/svg">
<g clip-path="url(#clip0_476_18539)">
<path d="M12.8754 13.034C12.524 13.322 12.2066 13.6295 11.9291 13.9521C10.9186 13.387 9.70858 13.0469 8.42969 13.0469C5.03906 13.0469 2.125 15.4375 2.125 18.0625C2.125 18.3438 2.25781 18.4531 2.5625 18.4531H10.0732C10.1071 18.9321 10.2465 19.3669 10.5017 19.7344H2.75C1.47656 19.7344 0.835938 19.2031 0.835938 18.1328C0.835938 14.8828 4.13281 11.7734 8.42969 11.7734C10.1121 11.7734 11.6419 12.2519 12.8754 13.034ZM12.1562 6.47656C12.1562 8.75781 10.5 10.5781 8.4375 10.5781C6.38281 10.5781 4.71875 8.76561 4.71875 6.49218C4.71875 4.30468 6.39844 2.48438 8.4375 2.48438C10.5 2.48438 12.1562 4.27344 12.1562 6.47656ZM6.00781 6.49218C6.00781 8.05468 7.10938 9.28905 8.4375 9.28905C9.77344 9.28905 10.875 8.05469 10.875 6.47656C10.875 4.97656 9.78906 3.77343 8.4375 3.77343C7.10938 3.77343 6.00781 4.99999 6.00781 6.49218Z" fill="white" fill-opacity="0.85"/>
<path d="M20.0547 10.4609C22.4219 10.4609 24.3281 8.37499 24.3281 5.78905C24.3281 3.24999 22.4219 1.23438 20.0547 1.23438C17.6953 1.23438 15.7734 3.28124 15.7734 5.80468C15.7734 8.3828 17.6875 10.4609 20.0547 10.4609ZM20.0547 9.15625C18.4688 9.15625 17.1562 7.68749 17.1562 5.80468C17.1562 3.97655 18.4609 2.53906 20.0547 2.53906C21.6484 2.53906 22.9453 3.95311 22.9453 5.78905C22.9453 7.67187 21.6406 9.15625 20.0547 9.15625ZM13.6016 19.7344H26.4844C28.0391 19.7344 28.7734 19.25 28.7734 18.2031C28.7734 15.5703 25.4531 11.7891 20.0391 11.7891C14.6328 11.7891 11.3125 15.5703 11.3125 18.2031C11.3125 19.25 12.0469 19.7344 13.6016 19.7344ZM13.2188 18.4297C12.8359 18.4297 12.6953 18.3281 12.6953 18.0469C12.6953 16.2266 15.3438 13.1016 20.0391 13.1016C24.7422 13.1016 27.3906 16.2266 27.3906 18.0469C27.3906 18.3281 27.25 18.4297 26.8672 18.4297H13.2188Z" fill="white" fill-opacity="0.85"/>
</g>
<defs>
<clipPath id="clip0_476_18539">
<rect width="30.0156" height="20.9766" fill="white"/>
</clipPath>
</defs>
</svg>
