<svg width="21" height="20" viewBox="0 0 21 20" fill="none" xmlns="http://www.w3.org/2000/svg">
<g clip-path="url(#clip0_476_14612)">
<path d="M1.02344 19.2734C1.25781 19.2734 1.49219 19.1875 1.78906 19.0234L6.94531 16.2109L12.4766 19.375C12.8281 19.5781 13.1953 19.6797 13.5469 19.6797C13.8828 19.6797 14.2109 19.5859 14.5156 19.4062L19.75 16.4062C20.2969 16.1016 20.5391 15.6797 20.5391 15.0547V1.48438C20.5391 0.804688 20.1641 0.414062 19.5156 0.414062C19.2812 0.414062 19.0469 0.5 18.75 0.65625L13.4219 3.60938L8 0.289062C7.67969 0.101562 7.33594 0.0078125 6.98438 0.0078125C6.63281 0.0078125 6.27344 0.101562 5.95312 0.289062L0.789062 3.28125C0.242188 3.59375 0 4.00781 0 4.64062V18.1953C0 18.8828 0.375 19.2734 1.02344 19.2734ZM6.39062 14.8594L1.67969 17.4609C1.63281 17.4844 1.57812 17.5078 1.53125 17.5078C1.44531 17.5078 1.38281 17.4375 1.38281 17.3281V4.96875C1.38281 4.72656 1.46875 4.55469 1.71094 4.41406L6.03906 1.85938C6.15625 1.78906 6.26562 1.73438 6.39062 1.67188V14.8594ZM7.77344 14.9922V1.84375C7.875 1.89062 7.99219 1.95312 8.08594 2.00781L12.7656 4.86719V17.8438C12.6328 17.7812 12.4922 17.7109 12.3594 17.6328L7.77344 14.9922ZM14.1562 17.9922V4.78906L18.8594 2.22656C18.9141 2.19531 18.9609 2.17969 19.0078 2.17969C19.1016 2.17969 19.1562 2.24219 19.1562 2.35156V14.7188C19.1562 14.9609 19.0703 15.1406 18.8359 15.2812L14.5781 17.7656C14.4375 17.8516 14.2969 17.9219 14.1562 17.9922Z" fill="white" fill-opacity="0.85"/>
</g>
<defs>
<clipPath id="clip0_476_14612">
<rect width="20.9453" height="19.6797" fill="white"/>
</clipPath>
</defs>
</svg>
