<svg width="155" height="159" viewBox="0 0 155 159" fill="none" xmlns="http://www.w3.org/2000/svg">
<ellipse cx="77.5" cy="77.4261" rx="77.5" ry="77.4261" fill="#D9D9D9"/>
<path d="M104.345 34.0586C107.661 33.6087 111.106 34.4597 113.813 36.1816C116.528 37.9088 118.229 40.3187 118.602 42.8239C119.401 48.182 118.18 50.2135 116.934 51.2579C115.292 52.6339 112.515 53.3179 108.208 53.9022C101.334 54.8349 96.4239 51.1179 95.6514 45.9379C94.7865 40.1378 98.1093 34.9049 104.345 34.0586Z" stroke="white" stroke-width="7"/>
<path d="M72.2297 48.0432C92.4477 45.7137 115.034 55.8101 117.795 74.2793C119.817 83.0414 114.467 93.2277 105.947 101.98C105.7 102.45 105.438 102.906 105.161 103.342C104.702 104.065 103.979 104.516 103.193 104.659C92.8913 114.159 79.1129 121.456 67.876 122.437C47.2423 125.442 32.6676 108.969 39.8301 87.3372C44.5483 73.0878 47.8165 61.815 55.3443 54.9885L55.5009 54.4755C55.608 54.5049 55.7146 54.5357 55.8212 54.5651C59.6537 51.2638 64.5694 49.0694 71.2691 48.1627L72.2297 48.0432ZM52.104 76.1684C50.6694 80.0737 49.2072 84.6128 47.4466 89.9301C44.5704 98.617 46.3286 105.153 49.5904 109.1C52.8628 113.06 58.6882 115.69 66.613 114.536L66.841 114.503L67.07 114.483C75.8693 113.714 87.9209 107.689 97.4143 99.0393C98.9962 97.5981 100.459 96.1225 101.789 94.638C101.782 94.5205 101.772 94.405 101.757 94.2916C101.578 92.8935 100.775 91.3698 98.1332 90.1814L98.1455 90.1511C95.4872 88.83 94.139 88.6436 93.2471 88.8567C92.2844 89.087 90.9236 90.0148 88.8032 93.4171L88.7195 93.5448C87.8207 94.8337 86.0394 95.1906 84.6656 94.3313C83.2475 93.4439 82.8005 91.5961 83.668 90.2037L84.0903 89.5394C84.1791 89.4029 84.269 89.2682 84.3586 89.1345C72.1436 82.7707 63.9304 79.4612 52.104 76.1684ZM60.607 61.0827C59.3577 62.2452 58.285 63.5855 57.2986 65.0949C56.0633 66.9852 54.9747 69.1159 53.9312 71.5383C66.2004 74.9761 74.7902 78.4886 87.6498 85.232C88.8621 84.1731 90.2008 83.4089 91.7373 83.0416C95.1085 82.236 98.4901 83.5783 101.855 85.377C101.977 85.4424 102.093 85.516 102.203 85.5948C103.855 86.5841 105.137 87.7908 106.055 89.1577C106.746 88.1107 107.361 87.0725 107.89 86.049C108.283 85.2908 108.617 84.5605 108.902 83.8601C92.3136 73.481 81.6688 67.3873 60.607 61.0827ZM72.4519 56.0749C70.024 56.4034 67.9597 56.9232 66.1728 57.6235C84.6546 63.5043 95.2664 69.4825 110.176 78.7739C110.248 77.7292 110.175 76.7938 109.985 75.9687L109.913 75.6621L109.867 75.352C108.954 69.2433 104.659 63.9228 97.5214 60.2168C90.3576 56.4973 81.1197 54.902 72.4519 56.0749Z" fill="white"/>
<path d="M50.7863 84.0382C52.6267 80.7534 55.3866 78.8422 57.9093 79.4669C61.3727 80.3247 63.0759 85.6364 61.713 91.3312C60.3502 97.026 56.4372 100.948 52.9738 100.09C49.5159 99.2336 47.8123 93.9367 49.1632 88.2521C48.3352 92.37 49.5225 96.0864 51.9191 96.6798C54.4124 97.297 57.2706 94.3006 58.3029 89.9874C59.3351 85.6741 58.1506 81.6763 55.6574 81.0587C53.9754 80.6422 52.1278 81.8709 50.7863 84.0382Z" fill="white"/>
<path d="M53.1129 83.7029L52.7471 85.8827L53.9609 86.7043L52.3713 86.6688L51.1971 88.5408L51.5814 86.2312L50.584 85.5394L51.8163 85.5292L53.1129 83.7029Z" fill="#FAE100"/>
</svg>
