<svg width="21" height="21" viewBox="0 0 21 21" fill="none" xmlns="http://www.w3.org/2000/svg">
<g clip-path="url(#clip0_476_18874)">
<path d="M10.1719 20.3516C15.7891 20.3516 20.3516 15.7969 20.3516 10.1797C20.3516 4.5625 15.7891 0 10.1719 0C4.55469 0 0 4.5625 0 10.1797C0 15.7969 4.55469 20.3516 10.1719 20.3516ZM10.1719 18.8984C5.35156 18.8984 1.45312 15 1.45312 10.1797C1.45312 5.35938 5.35156 1.46094 10.1719 1.46094C14.9922 1.46094 18.8906 5.35938 18.8906 10.1797C18.8906 15 14.9922 18.8984 10.1719 18.8984Z" fill="white" fill-opacity="0.85"/>
<path d="M7.64844 7.33594H15.3906C15.6953 7.33594 15.9219 7.10156 15.9219 6.79688C15.9219 6.49219 15.6953 6.26562 15.3906 6.26562H7.64844C7.34375 6.26562 7.10938 6.5 7.10938 6.79688C7.10938 7.09375 7.35156 7.33594 7.64844 7.33594ZM7.64844 14.0938H15.3906C15.6953 14.0938 15.9219 13.8672 15.9219 13.5625C15.9219 13.2578 15.6953 13.0234 15.3906 13.0234H7.64844C7.35156 13.0234 7.10938 13.2656 7.10938 13.5625C7.10938 13.8594 7.34375 14.0938 7.64844 14.0938ZM7.64844 10.7109H15.3906C15.6953 10.7109 15.9219 10.4844 15.9219 10.1797C15.9219 9.875 15.6953 9.64844 15.3906 9.64844H7.64844C7.35156 9.64844 7.10938 9.89062 7.10938 10.1797C7.10938 10.4688 7.35156 10.7109 7.64844 10.7109ZM5.22656 7.64062C5.6875 7.64062 6.07031 7.25781 6.07031 6.79688C6.07031 6.33594 5.69531 5.96094 5.22656 5.96094C4.75781 5.96094 4.39062 6.33594 4.39062 6.79688C4.39062 7.26562 4.75781 7.64062 5.22656 7.64062ZM5.22656 11.0234C5.6875 11.0234 6.07031 10.6406 6.07031 10.1797C6.07031 9.71875 5.6875 9.33594 5.22656 9.33594C4.75781 9.33594 4.39062 9.71094 4.39062 10.1797C4.39062 10.6484 4.75781 11.0234 5.22656 11.0234ZM5.22656 14.3984C5.69531 14.3984 6.07031 14.0312 6.07031 13.5625C6.07031 13.1016 5.6875 12.7188 5.22656 12.7188C4.75781 12.7188 4.39062 13.0938 4.39062 13.5625C4.39062 14.0312 4.75781 14.3984 5.22656 14.3984Z" fill="white" fill-opacity="0.85"/>
</g>
<defs>
<clipPath id="clip0_476_18874">
<rect width="20.7578" height="20.3672" fill="white"/>
</clipPath>
</defs>
</svg>
