<svg width="198" height="212" viewBox="0 0 198 212" fill="none" xmlns="http://www.w3.org/2000/svg">
<path d="M155.791 12.6317C163.455 11.5879 171.372 13.5575 177.604 17.5353C183.847 21.5206 188.012 27.2471 188.938 33.4816C190.709 45.4022 188.09 50.7619 184.547 53.7423C180.443 57.1948 173.827 58.6987 164.742 59.9359C149.072 62.0696 137.104 53.51 135.215 40.7975C133.194 27.1969 141.031 14.6416 155.791 12.6317Z" stroke="white" stroke-width="10"/>
<path d="M86.7902 45.1237C130.111 39.663 178.923 61.2347 184.83 100.995C194.42 142.76 125.82 199.736 78.4626 203.907C34.8578 210.295 3.97794 175.722 18.4205 130.045L18.7702 128.963C34.0483 82.7519 42.1964 51.1916 85.7676 45.2581L86.7902 45.1237ZM38.6952 101.482C36.2293 108.108 33.7969 115.443 31.1332 123.543L28.288 132.187C21.5275 152.636 25.3492 169.253 34.1189 179.898C42.8979 190.554 57.9199 196.809 76.8925 194.03L77.1775 193.988L77.465 193.963C98.2386 192.133 125.278 178.261 146.185 159.155C148.028 157.471 149.805 155.76 151.514 154.029C153.17 150.405 153.936 146.735 153.519 143.462C152.994 139.332 150.524 135.267 144.077 132.366L144.109 132.292C138.349 129.435 134.701 128.661 131.797 129.359C128.681 130.108 125.381 132.814 121.014 139.673L120.588 140.35C119.575 141.977 117.412 142.462 115.757 141.432C114.103 140.403 113.582 138.249 114.594 136.622L115.037 135.919C115.777 134.755 116.517 133.655 117.263 132.623C87.2812 116.782 68.7261 109.457 38.6952 101.482ZM56.7452 69.0889C54.2853 71.6039 52.0964 74.4176 50.0776 77.5143C46.7685 82.5901 43.9279 88.3887 41.2286 94.9791C71.8824 103.151 90.9754 110.773 121.932 127.195C124.413 124.876 127.06 123.298 130.048 122.58C136.086 121.129 142.407 123.465 149.527 127.276C149.752 127.397 149.959 127.538 150.146 127.696C156.441 131.468 159.73 136.751 160.482 142.661C160.53 143.042 160.567 143.423 160.594 143.804C164.364 139.038 167.542 134.216 169.997 129.459C171.026 127.467 171.909 125.517 172.656 123.615C132.038 97.9965 108.978 84.0846 56.7452 69.0889ZM87.2372 55.1495C77.0221 56.5406 69.2881 59.4453 63.0987 63.7189C112.566 78.3123 136.112 92.3232 174.811 116.71C175.935 111.748 176.003 107.189 175.067 103.114L174.979 102.731L174.922 102.344C172.551 86.3872 161.441 73.3456 144.851 64.7117C128.226 56.0598 107.067 52.4491 87.2372 55.1495Z" fill="white"/>
<path d="M42.0852 121.945C46.0033 114.885 51.9021 110.771 57.2903 112.11C64.6641 113.942 68.2902 125.293 65.3889 137.461C62.4874 149.63 54.1573 158.01 46.7835 156.177C39.4185 154.347 35.7919 143.022 38.6741 130.87C36.9058 139.674 39.4323 147.621 44.5374 148.89C49.8458 150.209 55.9305 143.807 58.1282 134.59C60.3258 125.373 57.8038 116.832 52.4954 115.513C48.8975 114.619 44.9445 117.273 42.0852 121.945Z" fill="white"/>
<path d="M47.0788 121.162L46.2999 125.82L48.8842 127.576L45.5 127.5L43 131.5L43.8183 126.565L41.6946 125.087L44.3183 125.065L47.0788 121.162Z" fill="#FAE100"/>
</svg>
