<svg width="21" height="21" viewBox="0 0 21 21" fill="none" xmlns="http://www.w3.org/2000/svg">
<g clip-path="url(#clip0_476_14617)">
<path d="M10.1719 20.3516C15.7891 20.3516 20.3516 15.7969 20.3516 10.1797C20.3516 4.5625 15.7891 0 10.1719 0C4.55469 0 0 4.5625 0 10.1797C0 15.7969 4.55469 20.3516 10.1719 20.3516ZM10.1719 18.8984C5.35156 18.8984 1.45312 15 1.45312 10.1797C1.45312 5.35938 5.35156 1.46094 10.1719 1.46094C14.9922 1.46094 18.8906 5.35938 18.8906 10.1797C18.8906 15 14.9922 18.8984 10.1719 18.8984Z" fill="white" fill-opacity="0.85"/>
<path d="M4.60157 10.9297L9.03126 10.9375C9.19532 10.9375 9.3047 11.0391 9.3047 11.2109V15.5859C9.3047 16.3828 10.1562 16.4609 10.4219 15.8828L14.9844 6.17191C15.3203 5.46878 14.7266 4.89065 14.0234 5.21878L4.32032 9.81253C3.72657 10.0938 3.83595 10.9297 4.60157 10.9297Z" fill="white" fill-opacity="0.85"/>
</g>
<defs>
<clipPath id="clip0_476_14617">
<rect width="20.7578" height="20.3672" fill="white"/>
</clipPath>
</defs>
</svg>
