<svg width="37" height="36" viewBox="0 0 37 36" fill="none" xmlns="http://www.w3.org/2000/svg">
<g clip-path="url(#clip0_290_9514)">
<path d="M29.2744 9.63145C28.4411 8.54676 26.4631 8.7972 24.8195 10.0435L21.2995 12.7126C20.8201 13.0761 20.5746 13.1221 20.0159 12.9969L9.0526 10.5439C8.71151 10.4639 8.39556 10.5167 8.14903 10.7036L7.14234 11.4669C6.91634 11.6383 6.95611 11.9468 7.26245 12.1232L15.6429 17.0018L11.5825 20.9214L7.68368 19.0085C7.38612 18.8721 7.14184 18.9056 6.86105 19.1185L6.47755 19.4093C6.25156 19.5806 6.21456 19.8306 6.40571 20.0826L13.0395 28.8313C13.2251 29.0759 13.4813 29.1151 13.7073 28.9438L14.0908 28.653C14.3715 28.44 14.4641 28.2065 14.4187 27.8906L13.6289 23.6202L18.4988 20.7682L20.9349 30.1543C21.0164 30.4894 21.3027 30.611 21.5287 30.4396L22.5354 29.6763C22.782 29.4893 22.918 29.1993 22.933 28.8493L23.5296 17.6307C23.5598 17.059 23.676 16.8425 24.1554 16.479L27.6754 13.8099C29.319 12.5636 30.0883 10.7191 29.2744 9.63145Z" fill="white" fill-opacity="0.85"/>
</g>
<defs>
<clipPath id="clip0_290_9514">
<rect width="26.8403" height="23.8289" fill="white" transform="translate(0.691162 16.3586) rotate(-37.172)"/>
</clipPath>
</defs>
</svg>
