<svg width="21" height="21" viewBox="0 0 21 21" fill="none" xmlns="http://www.w3.org/2000/svg">
<g clip-path="url(#clip0_290_10493)">
<path d="M20.3516 10.1797C20.3516 15.7812 15.7812 20.3516 10.1719 20.3516C4.57031 20.3516 0 15.7812 0 10.1797C0 4.57031 4.57031 0 10.1719 0C15.7812 0 20.3516 4.57031 20.3516 10.1797ZM4.25 13.6484C4.25 14.1328 4.63281 14.5156 5.10938 14.5156C5.59375 14.5156 5.97656 14.1328 5.97656 13.6484C5.97656 13.1797 5.58594 12.7812 5.10938 12.7812C4.63281 12.7812 4.25 13.1719 4.25 13.6484ZM7.59375 13.1016C7.28906 13.1016 7.03906 13.3516 7.03906 13.6484C7.03906 13.9531 7.27344 14.2031 7.59375 14.2031H15.5078C15.8281 14.2031 16.0703 13.9609 16.0703 13.6484C16.0703 13.3359 15.8281 13.1016 15.5078 13.1016H7.59375ZM4.25 10.1875C4.25 10.6719 4.63281 11.0547 5.10938 11.0547C5.58594 11.0547 5.97656 10.6641 5.97656 10.1875C5.97656 9.71875 5.58594 9.32812 5.10938 9.32812C4.63281 9.32812 4.25 9.71094 4.25 10.1875ZM7.59375 9.64062C7.28906 9.64062 7.03906 9.89062 7.03906 10.1875C7.03906 10.4922 7.28906 10.7422 7.59375 10.7422H15.5078C15.8281 10.7422 16.0703 10.5 16.0703 10.1875C16.0703 9.875 15.8281 9.64062 15.5078 9.64062H7.59375ZM4.25 6.73438C4.25 7.20312 4.63281 7.59375 5.10938 7.59375C5.58594 7.59375 5.97656 7.19531 5.97656 6.73438C5.97656 6.25 5.59375 5.86719 5.10938 5.86719C4.63281 5.86719 4.25 6.25 4.25 6.73438ZM7.59375 6.17969C7.27344 6.17969 7.03906 6.42188 7.03906 6.73438C7.03906 7.03125 7.28906 7.28125 7.59375 7.28125H15.5078C15.8281 7.28125 16.0703 7.04688 16.0703 6.73438C16.0703 6.42188 15.8281 6.17969 15.5078 6.17969H7.59375Z" fill="white" fill-opacity="0.85"/>
</g>
<defs>
<clipPath id="clip0_290_10493">
<rect width="20.7578" height="20.3672" fill="white"/>
</clipPath>
</defs>
</svg>
