<svg width="375" height="812" viewBox="0 0 375 812" fill="none" xmlns="http://www.w3.org/2000/svg">
<g clip-path="url(#clip0_715_12796)">
<rect width="375" height="812" fill="url(#paint0_linear_715_12796)"/>
<g filter="url(#filter0_d_715_12796)">
<path d="M450.31 332.83C442.204 317.448 430.258 304.519 415.942 295.637C401.626 286.755 385.568 282.308 369.744 282.843C353.921 283.379 339.024 288.873 326.89 298.65C314.756 308.427 305.915 322.059 301.456 337.866L309.293 341.067C313.306 326.839 321.265 314.568 332.187 305.768C343.109 296.968 356.518 292.022 370.761 291.54C385.004 291.058 399.459 295.061 412.345 303.056C425.231 311.051 435.984 322.688 443.281 336.534L450.31 332.83Z" fill="#178147"/>
<path d="M436.261 339.46C429.738 327.08 420.13 316.669 408.616 309.505C397.103 302.34 384.184 298.733 371.444 299.126C358.705 299.518 346.698 303.894 336.898 311.715C327.097 319.537 319.929 330.465 316.271 343.159L322.583 345.778C325.876 334.352 332.328 324.515 341.15 317.475C349.972 310.434 360.779 306.496 372.246 306.142C383.714 305.789 395.342 309.036 405.706 315.485C416.07 321.934 424.718 331.305 430.59 342.448L436.261 339.46Z" fill="#178147"/>
<path d="M424.315 346.11C419.23 336.461 411.749 328.342 402.783 322.741C393.817 317.14 383.754 314.301 373.821 314.568C363.887 314.836 354.512 318.199 346.838 324.248C339.165 330.297 333.524 338.77 330.605 348.635L335.529 350.719C338.157 341.84 343.235 334.213 350.142 328.768C357.049 323.323 365.488 320.296 374.429 320.055C383.371 319.814 392.429 322.37 400.499 327.412C408.57 332.453 415.304 339.762 419.881 348.447L424.315 346.11Z" fill="#178147"/>
<path d="M413.327 349.716C409.376 342.219 403.529 335.936 396.525 331.662C389.521 327.388 381.675 325.314 373.978 325.704C366.282 326.094 359.081 328.93 353.286 333.852C347.491 338.775 343.363 345.563 341.423 353.359L345.224 354.776C346.97 347.759 350.686 341.649 355.902 337.218C361.118 332.787 367.6 330.235 374.528 329.884C381.456 329.533 388.518 331.399 394.823 335.246C401.127 339.093 406.391 344.749 409.947 351.497L413.327 349.716Z" fill="#178147"/>
</g>
<path d="M213.31 587.83C205.204 572.448 193.258 559.519 178.942 550.637C164.626 541.755 148.568 537.308 132.744 537.843C116.921 538.379 102.024 543.873 89.8903 553.65C77.7563 563.427 68.915 577.059 64.4559 592.866L72.2926 596.067C76.3064 581.839 84.2647 569.568 95.1868 560.768C106.109 551.968 119.518 547.022 133.761 546.54C148.004 546.058 162.459 550.061 175.345 558.056C188.231 566.051 198.984 577.688 206.281 591.534L213.31 587.83Z" fill="#D9D9D9"/>
<path d="M199.261 594.46C192.738 582.08 183.13 571.669 171.616 564.505C160.103 557.34 147.184 553.733 134.444 554.126C121.705 554.518 109.698 558.894 99.8978 566.715C90.0973 574.537 82.9286 585.465 79.271 598.159L85.5832 600.778C88.8755 589.352 95.3283 579.515 104.15 572.475C112.972 565.434 123.779 561.496 135.246 561.142C146.714 560.789 158.342 564.036 168.706 570.485C179.07 576.934 187.718 586.305 193.59 597.448L199.261 594.46Z" fill="#D9D9D9"/>
<path d="M187.315 601.11C182.23 591.461 174.749 583.342 165.783 577.741C156.817 572.14 146.754 569.301 136.821 569.568C126.887 569.836 117.512 573.199 109.838 579.248C102.165 585.297 96.5244 593.77 93.6045 603.635L98.5292 605.719C101.157 596.84 106.235 589.213 113.142 583.768C120.049 578.323 128.488 575.296 137.429 575.055C146.371 574.814 155.429 577.37 163.499 582.412C171.57 587.453 178.304 594.762 182.881 603.447L187.315 601.11Z" fill="#D9D9D9"/>
<path d="M176.327 604.716C172.376 597.219 166.529 590.936 159.525 586.662C152.521 582.388 144.675 580.314 136.978 580.704C129.282 581.094 122.081 583.93 116.286 588.852C110.491 593.775 106.363 600.563 104.423 608.359L108.224 609.776C109.97 602.759 113.686 596.649 118.902 592.218C124.118 587.787 130.6 585.235 137.528 584.884C144.456 584.533 151.518 586.399 157.823 590.246C164.127 594.093 169.391 599.749 172.947 606.497L176.327 604.716Z" fill="#D9D9D9"/>
<path d="M71.3099 494.83C63.2042 479.448 51.2576 466.519 36.942 457.637C22.6265 448.755 6.56759 444.308 -9.25582 444.843C-25.0792 445.379 -39.9757 450.873 -52.1097 460.65C-64.2437 470.427 -73.085 484.059 -77.5441 499.866L-69.7074 503.067C-65.6936 488.839 -57.7353 476.568 -46.8132 467.768C-35.891 458.968 -22.4822 454.022 -8.23907 453.54C6.00406 453.058 20.4592 457.061 33.345 465.056C46.2308 473.051 56.9844 484.688 64.2805 498.534L71.3099 494.83Z" fill="#D9D9D9"/>
<path d="M57.2614 501.46C50.7377 489.08 41.1299 478.669 29.6163 471.505C18.1027 464.34 5.18382 460.733 -7.55571 461.126C-20.2952 461.518 -32.3016 465.894 -42.1022 473.715C-51.9027 481.537 -59.0714 492.465 -62.729 505.159L-56.4168 507.778C-53.1245 496.352 -46.6717 486.515 -37.8499 479.475C-29.0282 472.434 -18.2209 468.496 -6.75365 468.142C4.71359 467.789 16.3422 471.036 26.706 477.485C37.0697 483.934 45.718 493.305 51.5902 504.448L57.2614 501.46Z" fill="#D9D9D9"/>
<path d="M45.3148 508.11C40.2302 498.461 32.749 490.342 23.7832 484.741C14.8173 479.14 4.75422 476.301 -5.17941 476.568C-15.113 476.836 -24.4881 480.199 -32.1616 486.248C-39.8351 492.297 -45.4756 500.77 -48.3955 510.635L-43.4708 512.719C-40.8425 503.84 -35.7654 496.213 -28.8582 490.768C-21.951 485.323 -13.5123 482.296 -4.57075 482.055C4.37081 481.814 13.4289 484.37 21.4993 489.412C29.5697 494.453 36.3038 501.762 40.8806 510.447L45.3148 508.11Z" fill="#D9D9D9"/>
<path d="M34.3272 511.716C30.3764 504.219 24.5292 497.936 17.5252 493.662C10.5211 489.388 2.67468 487.314 -5.02185 487.704C-12.7184 488.094 -19.9194 490.93 -25.7142 495.852C-31.509 500.775 -35.6373 507.563 -37.5772 515.359L-33.7763 516.776C-32.0302 509.759 -28.3141 503.649 -23.0981 499.218C-17.882 494.787 -11.4002 492.235 -4.47231 491.884C2.45557 491.533 9.51836 493.399 15.8229 497.246C22.1275 501.093 27.3907 506.749 30.9469 513.497L34.3272 511.716Z" fill="#D9D9D9"/>
<path d="M205.31 509.83C197.204 494.448 185.258 481.519 170.942 472.637C156.626 463.755 140.568 459.308 124.744 459.843C108.921 460.379 94.0243 465.873 81.8903 475.65C69.7563 485.427 60.915 499.059 56.4559 514.866L64.2926 518.067C68.3064 503.839 76.2647 491.568 87.1868 482.768C98.109 473.968 111.518 469.022 125.761 468.54C140.004 468.058 154.459 472.061 167.345 480.056C180.231 488.051 190.984 499.688 198.281 513.534L205.31 509.83Z" fill="#D9D9D9"/>
<path d="M191.261 516.46C184.738 504.08 175.13 493.669 163.616 486.505C152.103 479.34 139.184 475.733 126.444 476.126C113.705 476.518 101.698 480.894 91.8978 488.715C82.0973 496.537 74.9286 507.465 71.271 520.159L77.5832 522.778C80.8755 511.352 87.3283 501.515 96.1501 494.475C104.972 487.434 115.779 483.496 127.246 483.142C138.714 482.789 150.342 486.036 160.706 492.485C171.07 498.934 179.718 508.305 185.59 519.448L191.261 516.46Z" fill="#D9D9D9"/>
<path d="M179.315 523.11C174.23 513.461 166.749 505.342 157.783 499.741C148.817 494.14 138.754 491.301 128.821 491.568C118.887 491.836 109.512 495.199 101.838 501.248C94.1649 507.297 88.5244 515.77 85.6045 525.635L90.5292 527.719C93.1575 518.84 98.2346 511.213 105.142 505.768C112.049 500.323 120.488 497.296 129.429 497.055C138.371 496.814 147.429 499.37 155.499 504.412C163.57 509.453 170.304 516.762 174.881 525.447L179.315 523.11Z" fill="#D9D9D9"/>
<path d="M168.327 526.716C164.376 519.219 158.529 512.936 151.525 508.662C144.521 504.388 136.675 502.314 128.978 502.704C121.282 503.094 114.081 505.93 108.286 510.852C102.491 515.775 98.3627 522.563 96.4228 530.359L100.224 531.776C101.97 524.759 105.686 518.649 110.902 514.218C116.118 509.787 122.6 507.235 129.528 506.884C136.456 506.533 143.518 508.399 149.823 512.246C156.127 516.093 161.391 521.749 164.947 528.497L168.327 526.716Z" fill="#D9D9D9"/>
<path d="M99.3099 557.83C91.2042 542.448 79.2576 529.519 64.942 520.637C50.6265 511.755 34.5676 507.308 18.7442 507.843C2.92077 508.379 -11.9757 513.873 -24.1097 523.65C-36.2437 533.427 -45.085 547.059 -49.5441 562.866L-41.7074 566.067C-37.6936 551.839 -29.7353 539.568 -18.8132 530.768C-7.89099 521.968 5.51781 517.022 19.7609 516.54C34.0041 516.058 48.4592 520.061 61.345 528.056C74.2308 536.051 84.9844 547.688 92.2805 561.534L99.3099 557.83Z" fill="#D9D9D9"/>
<path d="M85.2614 564.46C78.7377 552.08 69.1299 541.669 57.6163 534.505C46.1027 527.34 33.1838 523.733 20.4443 524.126C7.70476 524.518 -4.30158 528.894 -14.1022 536.715C-23.9027 544.537 -31.0714 555.465 -34.729 568.159L-28.4168 570.778C-25.1245 559.352 -18.6717 549.515 -9.84994 542.475C-1.02815 535.434 9.77912 531.496 21.2464 531.142C32.7136 530.789 44.3422 534.036 54.706 540.485C65.0697 546.934 73.718 556.305 79.5902 567.448L85.2614 564.46Z" fill="#D9D9D9"/>
<path d="M73.3148 571.11C68.2302 561.461 60.749 553.342 51.7832 547.741C42.8173 542.14 32.7542 539.301 22.8206 539.568C12.887 539.836 3.51194 543.199 -4.16157 549.248C-11.8351 555.297 -17.4756 563.77 -20.3955 573.635L-15.4708 575.719C-12.8425 566.84 -7.76535 559.213 -0.858198 553.768C6.04896 548.323 14.4877 545.296 23.4292 545.055C32.3708 544.814 41.4289 547.37 49.4993 552.412C57.5697 557.453 64.3038 564.762 68.8806 573.447L73.3148 571.11Z" fill="#D9D9D9"/>
<path d="M62.3272 574.716C58.3764 567.219 52.5292 560.936 45.5252 556.662C38.5211 552.388 30.6747 550.314 22.9781 550.704C15.2816 551.094 8.08064 553.93 2.28584 558.852C-3.50896 563.775 -7.63733 570.563 -9.5772 578.359L-5.77635 579.776C-4.03021 572.759 -0.314149 566.649 4.90192 562.218C10.118 557.787 16.5998 555.235 23.5277 554.884C30.4556 554.533 37.5184 556.399 43.8229 560.246C50.1275 564.093 55.3907 569.749 58.9469 576.497L62.3272 574.716Z" fill="#D9D9D9"/>
<g filter="url(#filter1_d_715_12796)">
<path d="M71.3099 494.83C63.2042 479.448 51.2576 466.519 36.942 457.637C22.6265 448.755 6.56759 444.308 -9.25582 444.843C-25.0792 445.379 -39.9757 450.873 -52.1097 460.65C-64.2437 470.427 -73.085 484.059 -77.5441 499.866L-69.7074 503.067C-65.6936 488.839 -57.7353 476.568 -46.8132 467.768C-35.891 458.968 -22.4822 454.022 -8.23907 453.54C6.00406 453.058 20.4592 457.061 33.345 465.056C46.2308 473.051 56.9844 484.688 64.2805 498.534L71.3099 494.83Z" fill="#178147"/>
<path d="M57.2614 501.46C50.7377 489.08 41.1299 478.669 29.6163 471.505C18.1027 464.34 5.18382 460.733 -7.55571 461.126C-20.2952 461.518 -32.3016 465.894 -42.1022 473.715C-51.9027 481.537 -59.0714 492.465 -62.729 505.159L-56.4168 507.778C-53.1245 496.352 -46.6717 486.515 -37.8499 479.475C-29.0282 472.434 -18.2209 468.496 -6.75365 468.142C4.71359 467.789 16.3422 471.036 26.706 477.485C37.0697 483.934 45.718 493.305 51.5902 504.448L57.2614 501.46Z" fill="#178147"/>
<path d="M45.3148 508.11C40.2302 498.461 32.749 490.342 23.7832 484.741C14.8173 479.14 4.75422 476.301 -5.17941 476.568C-15.113 476.836 -24.4881 480.199 -32.1616 486.248C-39.8351 492.297 -45.4756 500.77 -48.3955 510.635L-43.4708 512.719C-40.8425 503.84 -35.7654 496.213 -28.8582 490.768C-21.951 485.323 -13.5123 482.296 -4.57075 482.055C4.37081 481.814 13.4289 484.37 21.4993 489.412C29.5697 494.453 36.3038 501.762 40.8806 510.447L45.3148 508.11Z" fill="#178147"/>
<path d="M34.3272 511.716C30.3764 504.219 24.5292 497.936 17.5252 493.662C10.5211 489.388 2.67468 487.314 -5.02185 487.704C-12.7184 488.094 -19.9194 490.93 -25.7142 495.852C-31.509 500.775 -35.6373 507.563 -37.5772 515.359L-33.7763 516.776C-32.0302 509.759 -28.3141 503.649 -23.0981 499.218C-17.882 494.787 -11.4002 492.235 -4.47231 491.884C2.45557 491.533 9.51836 493.399 15.8229 497.246C22.1275 501.093 27.3907 506.749 30.9469 513.497L34.3272 511.716Z" fill="#178147"/>
</g>
<g filter="url(#filter2_d_715_12796)">
<path d="M205.31 509.83C197.204 494.448 185.258 481.519 170.942 472.637C156.626 463.755 140.568 459.308 124.744 459.843C108.921 460.379 94.0243 465.873 81.8903 475.65C69.7563 485.427 60.915 499.059 56.4559 514.866L64.2926 518.067C68.3064 503.839 76.2647 491.568 87.1868 482.768C98.109 473.968 111.518 469.022 125.761 468.54C140.004 468.058 154.459 472.061 167.345 480.056C180.231 488.051 190.984 499.688 198.281 513.534L205.31 509.83Z" fill="#178147"/>
<path d="M191.261 516.46C184.738 504.08 175.13 493.669 163.616 486.505C152.103 479.34 139.184 475.733 126.444 476.126C113.705 476.518 101.698 480.894 91.8978 488.715C82.0973 496.537 74.9286 507.465 71.271 520.159L77.5832 522.778C80.8755 511.352 87.3283 501.515 96.1501 494.475C104.972 487.434 115.779 483.496 127.246 483.142C138.714 482.789 150.342 486.036 160.706 492.485C171.07 498.934 179.718 508.305 185.59 519.448L191.261 516.46Z" fill="#178147"/>
<path d="M179.315 523.11C174.23 513.461 166.749 505.342 157.783 499.741C148.817 494.14 138.754 491.301 128.821 491.568C118.887 491.836 109.512 495.199 101.838 501.248C94.1649 507.297 88.5244 515.77 85.6045 525.635L90.5292 527.719C93.1575 518.84 98.2346 511.213 105.142 505.768C112.049 500.323 120.488 497.296 129.429 497.055C138.371 496.814 147.429 499.37 155.499 504.412C163.57 509.453 170.304 516.762 174.881 525.447L179.315 523.11Z" fill="#178147"/>
<path d="M168.327 526.716C164.376 519.219 158.529 512.936 151.525 508.662C144.521 504.388 136.675 502.314 128.978 502.704C121.282 503.094 114.081 505.93 108.286 510.852C102.491 515.775 98.3627 522.563 96.4228 530.359L100.224 531.776C101.97 524.759 105.686 518.649 110.902 514.218C116.118 509.787 122.6 507.235 129.528 506.884C136.456 506.533 143.518 508.399 149.823 512.246C156.127 516.093 161.391 521.749 164.947 528.497L168.327 526.716Z" fill="#178147"/>
</g>
<g filter="url(#filter3_d_715_12796)">
<path d="M385.31 390.83C377.204 375.448 365.258 362.519 350.942 353.637C336.626 344.755 320.568 340.308 304.744 340.843C288.921 341.379 274.024 346.873 261.89 356.65C249.756 366.427 240.915 380.059 236.456 395.866L244.293 399.067C248.306 384.839 256.265 372.568 267.187 363.768C278.109 354.968 291.518 350.022 305.761 349.54C320.004 349.058 334.459 353.061 347.345 361.056C360.231 369.051 370.984 380.688 378.281 394.534L385.31 390.83Z" fill="#178147"/>
<path d="M371.261 397.46C364.738 385.08 355.13 374.669 343.616 367.505C332.103 360.34 319.184 356.733 306.444 357.126C293.705 357.518 281.698 361.894 271.898 369.715C262.097 377.537 254.929 388.465 251.271 401.159L257.583 403.778C260.876 392.352 267.328 382.515 276.15 375.475C284.972 368.434 295.779 364.496 307.246 364.142C318.714 363.789 330.342 367.036 340.706 373.485C351.07 379.934 359.718 389.305 365.59 400.448L371.261 397.46Z" fill="#178147"/>
<path d="M359.315 404.11C354.23 394.461 346.749 386.342 337.783 380.741C328.817 375.14 318.754 372.301 308.821 372.568C298.887 372.836 289.512 376.199 281.838 382.248C274.165 388.297 268.524 396.77 265.605 406.635L270.529 408.719C273.157 399.84 278.235 392.213 285.142 386.768C292.049 381.323 300.488 378.296 309.429 378.055C318.371 377.814 327.429 380.37 335.499 385.412C343.57 390.453 350.304 397.762 354.881 406.447L359.315 404.11Z" fill="#178147"/>
<path d="M348.327 407.716C344.376 400.219 338.529 393.936 331.525 389.662C324.521 385.388 316.675 383.314 308.978 383.704C301.282 384.094 294.081 386.93 288.286 391.852C282.491 396.775 278.363 403.563 276.423 411.359L280.224 412.776C281.97 405.759 285.686 399.649 290.902 395.218C296.118 390.787 302.6 388.235 309.528 387.884C316.456 387.533 323.518 389.399 329.823 393.246C336.127 397.093 341.391 402.749 344.947 409.497L348.327 407.716Z" fill="#178147"/>
</g>
<circle cx="90" cy="102" r="58" fill="#FB5C25"/>
<g filter="url(#filter4_d_715_12796)">
<path d="M209.39 140.34H218.7V172.89H209.39V140.34ZM189.02 142.79H199.24C199.24 148.67 198.143 153.71 195.95 157.91C193.757 162.11 190.42 165.54 185.94 168.2C181.507 170.86 175.86 172.89 169 174.29L165.78 166.8C170.12 166.007 173.76 165.003 176.7 163.79C179.687 162.577 182.067 161.153 183.84 159.52C185.66 157.887 186.967 156.113 187.76 154.2C188.6 152.287 189.02 150.257 189.02 148.11V142.79ZM169.21 142.79H195.53V150.14H169.21V142.79ZM175.51 175.55H218.7V193.19H184.89V200.19H175.58V186.47H209.32V182.69H175.51V175.55ZM175.58 197.39H220.31V204.6H175.58V197.39Z" fill="white"/>
</g>
<g filter="url(#filter5_d_715_12796)">
<path d="M212.32 314.27H221.63V379.3H212.32V314.27ZM186.7 318.82C190.013 318.82 192.953 319.777 195.52 321.69C198.087 323.557 200.093 326.24 201.54 329.74C203.033 333.193 203.78 337.277 203.78 341.99C203.78 346.75 203.033 350.88 201.54 354.38C200.093 357.833 198.087 360.517 195.52 362.43C192.953 364.297 190.013 365.23 186.7 365.23C183.433 365.23 180.517 364.297 177.95 362.43C175.383 360.517 173.353 357.833 171.86 354.38C170.413 350.88 169.69 346.75 169.69 341.99C169.69 337.277 170.413 333.193 171.86 329.74C173.353 326.24 175.383 323.557 177.95 321.69C180.517 319.777 183.433 318.82 186.7 318.82ZM186.7 327.29C185.113 327.29 183.713 327.85 182.5 328.97C181.287 330.09 180.33 331.747 179.63 333.94C178.977 336.087 178.65 338.77 178.65 341.99C178.65 345.163 178.977 347.87 179.63 350.11C180.33 352.303 181.287 353.96 182.5 355.08C183.713 356.2 185.113 356.76 186.7 356.76C188.333 356.76 189.757 356.2 190.97 355.08C192.183 353.96 193.117 352.303 193.77 350.11C194.47 347.87 194.82 345.163 194.82 341.99C194.82 338.77 194.47 336.087 193.77 333.94C193.117 331.747 192.183 330.09 190.97 328.97C189.757 327.85 188.333 327.29 186.7 327.29ZM188.73 403.68C192.09 403.68 195.123 404.357 197.83 405.71C200.537 407.063 202.66 408.953 204.2 411.38C205.74 413.76 206.51 416.513 206.51 419.64C206.51 422.72 205.74 425.473 204.2 427.9C202.66 430.327 200.537 432.217 197.83 433.57C195.123 434.923 192.09 435.6 188.73 435.6C185.323 435.6 182.267 434.923 179.56 433.57C176.853 432.217 174.707 430.327 173.12 427.9C171.58 425.473 170.81 422.72 170.81 419.64C170.81 416.513 171.58 413.76 173.12 411.38C174.707 408.953 176.853 407.063 179.56 405.71C182.267 404.357 185.323 403.68 188.73 403.68ZM188.73 411.66C187.05 411.66 185.533 411.987 184.18 412.64C182.873 413.247 181.823 414.157 181.03 415.37C180.283 416.537 179.91 417.96 179.91 419.64C179.91 421.32 180.283 422.767 181.03 423.98C181.823 425.193 182.873 426.127 184.18 426.78C185.533 427.387 187.05 427.69 188.73 427.69C190.363 427.69 191.833 427.387 193.14 426.78C194.447 426.127 195.473 425.193 196.22 423.98C197.013 422.767 197.41 421.32 197.41 419.64C197.41 417.96 197.013 416.537 196.22 415.37C195.473 414.157 194.447 413.247 193.14 412.64C191.833 411.987 190.363 411.66 188.73 411.66ZM212.6 399.27H221.91V464.3H212.6V399.27ZM169.2 451.21L168.15 443.65C171.93 443.65 176.107 443.627 180.68 443.58C185.3 443.487 190.037 443.3 194.89 443.02C199.79 442.693 204.527 442.203 209.1 441.55L209.73 448.27C205.063 449.203 200.327 449.88 195.52 450.3C190.713 450.673 186.07 450.93 181.59 451.07C177.11 451.163 172.98 451.21 169.2 451.21ZM173.05 487.14H188.17V494.56H173.05V487.14ZM185.37 487.14H194.47V490.78C194.47 492.46 194.423 494.397 194.33 496.59C194.237 498.737 193.957 501.14 193.49 503.8C193.07 506.46 192.323 509.423 191.25 512.69L182.22 511.5C183.293 508.28 184.04 505.41 184.46 502.89C184.927 500.37 185.183 498.13 185.23 496.17C185.323 494.163 185.37 492.367 185.37 490.78V487.14ZM198.32 487.14H214.98V494.56H198.32V487.14ZM210.64 487.14H219.67V491.2C219.67 493.86 219.553 496.987 219.32 500.58C219.087 504.127 218.27 508.28 216.87 513.04L207.91 511.92C208.843 508.747 209.497 505.923 209.87 503.45C210.243 500.977 210.453 498.737 210.5 496.73C210.593 494.723 210.64 492.88 210.64 491.2V487.14ZM167.8 509.05H226.53V516.4H167.8V509.05ZM192.37 514.58H201.68V527.81H192.37V514.58ZM174.94 524.66H219.11V548.53H174.94V524.66ZM209.94 531.94H184.11V541.18H209.94V531.94Z" fill="white"/>
</g>
<g filter="url(#filter6_d_715_12796)">
<path d="M217 236H181V243H217V251H172V228H217V236Z" fill="white"/>
</g>
<g filter="url(#filter7_d_715_12796)">
<path d="M194.5 276C207.479 276 218 281.596 218 288.5C218 295.404 207.479 301 194.5 301C181.521 301 171 295.404 171 288.5C171 281.596 181.521 276 194.5 276ZM194.5 282C185.979 282 181 284.221 181 288.741C181 293.261 185.979 295 194.5 295C203.021 295 208 293.261 208 288.741C208 284.221 203.021 282 194.5 282ZM224 272H165V265H224V272ZM195.5 254C197.985 254 200 256.015 200 258.5C200 260.985 197.985 263 195.5 263C193.015 263 191 260.985 191 258.5C191 256.015 193.015 254 195.5 254Z" fill="white"/>
</g>
<path d="M276 126L277.323 135.174L284.56 133.946L278.14 138.388L281.29 146.804L276 140.375L270.71 146.804L273.86 138.388L267.44 133.946L274.677 135.174L276 126Z" fill="#D9D9D9"/>
<path d="M276 126L277.323 135.174L284.56 133.946L278.14 138.388L281.29 146.804L276 140.375L270.71 146.804L273.86 138.388L267.44 133.946L274.677 135.174L276 126Z" fill="#D9D9D9"/>
<path d="M91 253L92.3225 262.174L99.5595 260.946L93.1399 265.388L96.2901 273.804L91 267.375L85.7099 273.804L88.8601 265.388L82.4405 260.946L89.6775 262.174L91 253Z" fill="#D9D9D9"/>
<path d="M307 474L308.323 483.174L315.56 481.946L309.14 486.388L312.29 494.804L307 488.375L301.71 494.804L304.86 486.388L298.44 481.946L305.677 483.174L307 474Z" fill="#D9D9D9"/>
<g filter="url(#filter8_d_715_12796)">
<path d="M99.3099 557.83C91.2042 542.448 79.2576 529.519 64.942 520.637C50.6265 511.755 34.5676 507.308 18.7442 507.843C2.92077 508.379 -11.9757 513.873 -24.1097 523.65C-36.2437 533.427 -45.085 547.059 -49.5441 562.866L-41.7074 566.067C-37.6936 551.839 -29.7353 539.568 -18.8132 530.768C-7.89099 521.968 5.51781 517.022 19.7609 516.54C34.0041 516.058 48.4592 520.061 61.345 528.056C74.2308 536.051 84.9844 547.688 92.2805 561.534L99.3099 557.83Z" fill="#178147"/>
<path d="M85.2614 564.46C78.7377 552.08 69.1299 541.669 57.6163 534.505C46.1027 527.34 33.1838 523.733 20.4443 524.126C7.70476 524.518 -4.30158 528.894 -14.1022 536.715C-23.9027 544.537 -31.0714 555.465 -34.729 568.159L-28.4168 570.778C-25.1245 559.352 -18.6717 549.515 -9.84994 542.475C-1.02815 535.434 9.77912 531.496 21.2464 531.142C32.7136 530.789 44.3422 534.036 54.706 540.485C65.0697 546.934 73.718 556.305 79.5902 567.448L85.2614 564.46Z" fill="#178147"/>
<path d="M73.3148 571.11C68.2302 561.461 60.749 553.342 51.7832 547.741C42.8173 542.14 32.7542 539.301 22.8206 539.568C12.887 539.836 3.51194 543.199 -4.16157 549.248C-11.8351 555.297 -17.4756 563.77 -20.3955 573.635L-15.4708 575.719C-12.8425 566.84 -7.76535 559.213 -0.858198 553.768C6.04896 548.323 14.4877 545.296 23.4292 545.055C32.3708 544.814 41.4289 547.37 49.4993 552.412C57.5697 557.453 64.3038 564.762 68.8806 573.447L73.3148 571.11Z" fill="#178147"/>
<path d="M62.3272 574.716C58.3764 567.219 52.5292 560.936 45.5252 556.662C38.5211 552.388 30.6747 550.314 22.9781 550.704C15.2816 551.094 8.08064 553.93 2.28584 558.852C-3.50896 563.775 -7.63733 570.563 -9.5772 578.359L-5.77635 579.776C-4.03021 572.759 -0.314149 566.649 4.90192 562.218C10.118 557.787 16.5998 555.235 23.5277 554.884C30.4556 554.533 37.5184 556.399 43.8229 560.246C50.1275 564.093 55.3907 569.749 58.9469 576.497L62.3272 574.716Z" fill="#178147"/>
</g>
<g filter="url(#filter9_d_715_12796)">
<path d="M213.31 587.83C205.204 572.448 193.258 559.519 178.942 550.637C164.626 541.755 148.568 537.308 132.744 537.843C116.921 538.379 102.024 543.873 89.8903 553.65C77.7563 563.427 68.915 577.059 64.4559 592.866L72.2926 596.067C76.3064 581.839 84.2647 569.568 95.1868 560.768C106.109 551.968 119.518 547.022 133.761 546.54C148.004 546.058 162.459 550.061 175.345 558.056C188.231 566.051 198.984 577.688 206.281 591.534L213.31 587.83Z" fill="#178147"/>
<path d="M199.261 594.46C192.738 582.08 183.13 571.669 171.616 564.505C160.103 557.34 147.184 553.733 134.444 554.126C121.705 554.518 109.698 558.894 99.8978 566.715C90.0973 574.537 82.9286 585.465 79.271 598.159L85.5832 600.778C88.8755 589.352 95.3283 579.515 104.15 572.475C112.972 565.434 123.779 561.496 135.246 561.142C146.714 560.789 158.342 564.036 168.706 570.485C179.07 576.934 187.718 586.305 193.59 597.448L199.261 594.46Z" fill="#178147"/>
<path d="M187.315 601.11C182.23 591.461 174.749 583.342 165.783 577.741C156.817 572.14 146.754 569.301 136.821 569.568C126.887 569.836 117.512 573.199 109.838 579.248C102.165 585.297 96.5244 593.77 93.6045 603.635L98.5292 605.719C101.157 596.84 106.235 589.213 113.142 583.768C120.049 578.323 128.488 575.296 137.429 575.055C146.371 574.814 155.429 577.37 163.499 582.412C171.57 587.453 178.304 594.762 182.881 603.447L187.315 601.11Z" fill="#178147"/>
<path d="M176.327 604.716C172.376 597.219 166.529 590.936 159.525 586.662C152.521 582.388 144.675 580.314 136.978 580.704C129.282 581.094 122.081 583.93 116.286 588.852C110.491 593.775 106.363 600.563 104.423 608.359L108.224 609.776C109.97 602.759 113.686 596.649 118.902 592.218C124.118 587.787 130.6 585.235 137.528 584.884C144.456 584.533 151.518 586.399 157.823 590.246C164.127 594.093 169.391 599.749 172.947 606.497L176.327 604.716Z" fill="#178147"/>
</g>
</g>
<defs>
<filter id="filter0_d_715_12796" x="297.456" y="282.8" width="156.854" height="79.976" filterUnits="userSpaceOnUse" color-interpolation-filters="sRGB">
<feFlood flood-opacity="0" result="BackgroundImageFix"/>
<feColorMatrix in="SourceAlpha" type="matrix" values="0 0 0 0 0 0 0 0 0 0 0 0 0 0 0 0 0 0 127 0" result="hardAlpha"/>
<feOffset dy="4"/>
<feGaussianBlur stdDeviation="2"/>
<feComposite in2="hardAlpha" operator="out"/>
<feColorMatrix type="matrix" values="0 0 0 0 0 0 0 0 0 0 0 0 0 0 0 0 0 0 0.25 0"/>
<feBlend mode="normal" in2="BackgroundImageFix" result="effect1_dropShadow_715_12796"/>
<feBlend mode="normal" in="SourceGraphic" in2="effect1_dropShadow_715_12796" result="shape"/>
</filter>
<filter id="filter1_d_715_12796" x="-81.5442" y="444.8" width="156.854" height="79.976" filterUnits="userSpaceOnUse" color-interpolation-filters="sRGB">
<feFlood flood-opacity="0" result="BackgroundImageFix"/>
<feColorMatrix in="SourceAlpha" type="matrix" values="0 0 0 0 0 0 0 0 0 0 0 0 0 0 0 0 0 0 127 0" result="hardAlpha"/>
<feOffset dy="4"/>
<feGaussianBlur stdDeviation="2"/>
<feComposite in2="hardAlpha" operator="out"/>
<feColorMatrix type="matrix" values="0 0 0 0 0 0 0 0 0 0 0 0 0 0 0 0 0 0 0.25 0"/>
<feBlend mode="normal" in2="BackgroundImageFix" result="effect1_dropShadow_715_12796"/>
<feBlend mode="normal" in="SourceGraphic" in2="effect1_dropShadow_715_12796" result="shape"/>
</filter>
<filter id="filter2_d_715_12796" x="52.4558" y="459.8" width="156.854" height="79.976" filterUnits="userSpaceOnUse" color-interpolation-filters="sRGB">
<feFlood flood-opacity="0" result="BackgroundImageFix"/>
<feColorMatrix in="SourceAlpha" type="matrix" values="0 0 0 0 0 0 0 0 0 0 0 0 0 0 0 0 0 0 127 0" result="hardAlpha"/>
<feOffset dy="4"/>
<feGaussianBlur stdDeviation="2"/>
<feComposite in2="hardAlpha" operator="out"/>
<feColorMatrix type="matrix" values="0 0 0 0 0 0 0 0 0 0 0 0 0 0 0 0 0 0 0.25 0"/>
<feBlend mode="normal" in2="BackgroundImageFix" result="effect1_dropShadow_715_12796"/>
<feBlend mode="normal" in="SourceGraphic" in2="effect1_dropShadow_715_12796" result="shape"/>
</filter>
<filter id="filter3_d_715_12796" x="232.456" y="340.8" width="156.854" height="79.976" filterUnits="userSpaceOnUse" color-interpolation-filters="sRGB">
<feFlood flood-opacity="0" result="BackgroundImageFix"/>
<feColorMatrix in="SourceAlpha" type="matrix" values="0 0 0 0 0 0 0 0 0 0 0 0 0 0 0 0 0 0 127 0" result="hardAlpha"/>
<feOffset dy="4"/>
<feGaussianBlur stdDeviation="2"/>
<feComposite in2="hardAlpha" operator="out"/>
<feColorMatrix type="matrix" values="0 0 0 0 0 0 0 0 0 0 0 0 0 0 0 0 0 0 0.25 0"/>
<feBlend mode="normal" in2="BackgroundImageFix" result="effect1_dropShadow_715_12796"/>
<feBlend mode="normal" in="SourceGraphic" in2="effect1_dropShadow_715_12796" result="shape"/>
</filter>
<filter id="filter4_d_715_12796" x="163.78" y="140.34" width="62.53" height="72.2599" filterUnits="userSpaceOnUse" color-interpolation-filters="sRGB">
<feFlood flood-opacity="0" result="BackgroundImageFix"/>
<feColorMatrix in="SourceAlpha" type="matrix" values="0 0 0 0 0 0 0 0 0 0 0 0 0 0 0 0 0 0 127 0" result="hardAlpha"/>
<feOffset dx="2" dy="4"/>
<feGaussianBlur stdDeviation="2"/>
<feComposite in2="hardAlpha" operator="out"/>
<feColorMatrix type="matrix" values="0 0 0 0 0 0 0 0 0 0 0 0 0 0 0 0 0 0 0.25 0"/>
<feBlend mode="normal" in2="BackgroundImageFix" result="effect1_dropShadow_715_12796"/>
<feBlend mode="normal" in="SourceGraphic" in2="effect1_dropShadow_715_12796" result="shape"/>
</filter>
<filter id="filter5_d_715_12796" x="165.8" y="314.27" width="66.73" height="242.26" filterUnits="userSpaceOnUse" color-interpolation-filters="sRGB">
<feFlood flood-opacity="0" result="BackgroundImageFix"/>
<feColorMatrix in="SourceAlpha" type="matrix" values="0 0 0 0 0 0 0 0 0 0 0 0 0 0 0 0 0 0 127 0" result="hardAlpha"/>
<feOffset dx="2" dy="4"/>
<feGaussianBlur stdDeviation="2"/>
<feComposite in2="hardAlpha" operator="out"/>
<feColorMatrix type="matrix" values="0 0 0 0 0 0 0 0 0 0 0 0 0 0 0 0 0 0 0.25 0"/>
<feBlend mode="normal" in2="BackgroundImageFix" result="effect1_dropShadow_715_12796"/>
<feBlend mode="normal" in="SourceGraphic" in2="effect1_dropShadow_715_12796" result="shape"/>
</filter>
<filter id="filter6_d_715_12796" x="170" y="228" width="53" height="31" filterUnits="userSpaceOnUse" color-interpolation-filters="sRGB">
<feFlood flood-opacity="0" result="BackgroundImageFix"/>
<feColorMatrix in="SourceAlpha" type="matrix" values="0 0 0 0 0 0 0 0 0 0 0 0 0 0 0 0 0 0 127 0" result="hardAlpha"/>
<feOffset dx="2" dy="4"/>
<feGaussianBlur stdDeviation="2"/>
<feComposite in2="hardAlpha" operator="out"/>
<feColorMatrix type="matrix" values="0 0 0 0 0 0 0 0 0 0 0 0 0 0 0 0 0 0 0.25 0"/>
<feBlend mode="normal" in2="BackgroundImageFix" result="effect1_dropShadow_715_12796"/>
<feBlend mode="normal" in="SourceGraphic" in2="effect1_dropShadow_715_12796" result="shape"/>
</filter>
<filter id="filter7_d_715_12796" x="163" y="254" width="67" height="55" filterUnits="userSpaceOnUse" color-interpolation-filters="sRGB">
<feFlood flood-opacity="0" result="BackgroundImageFix"/>
<feColorMatrix in="SourceAlpha" type="matrix" values="0 0 0 0 0 0 0 0 0 0 0 0 0 0 0 0 0 0 127 0" result="hardAlpha"/>
<feOffset dx="2" dy="4"/>
<feGaussianBlur stdDeviation="2"/>
<feComposite in2="hardAlpha" operator="out"/>
<feColorMatrix type="matrix" values="0 0 0 0 0 0 0 0 0 0 0 0 0 0 0 0 0 0 0.25 0"/>
<feBlend mode="normal" in2="BackgroundImageFix" result="effect1_dropShadow_715_12796"/>
<feBlend mode="normal" in="SourceGraphic" in2="effect1_dropShadow_715_12796" result="shape"/>
</filter>
<filter id="filter8_d_715_12796" x="-53.5442" y="507.8" width="156.854" height="79.976" filterUnits="userSpaceOnUse" color-interpolation-filters="sRGB">
<feFlood flood-opacity="0" result="BackgroundImageFix"/>
<feColorMatrix in="SourceAlpha" type="matrix" values="0 0 0 0 0 0 0 0 0 0 0 0 0 0 0 0 0 0 127 0" result="hardAlpha"/>
<feOffset dy="4"/>
<feGaussianBlur stdDeviation="2"/>
<feComposite in2="hardAlpha" operator="out"/>
<feColorMatrix type="matrix" values="0 0 0 0 0 0 0 0 0 0 0 0 0 0 0 0 0 0 0.25 0"/>
<feBlend mode="normal" in2="BackgroundImageFix" result="effect1_dropShadow_715_12796"/>
<feBlend mode="normal" in="SourceGraphic" in2="effect1_dropShadow_715_12796" result="shape"/>
</filter>
<filter id="filter9_d_715_12796" x="60.4558" y="537.8" width="156.854" height="79.976" filterUnits="userSpaceOnUse" color-interpolation-filters="sRGB">
<feFlood flood-opacity="0" result="BackgroundImageFix"/>
<feColorMatrix in="SourceAlpha" type="matrix" values="0 0 0 0 0 0 0 0 0 0 0 0 0 0 0 0 0 0 127 0" result="hardAlpha"/>
<feOffset dy="4"/>
<feGaussianBlur stdDeviation="2"/>
<feComposite in2="hardAlpha" operator="out"/>
<feColorMatrix type="matrix" values="0 0 0 0 0 0 0 0 0 0 0 0 0 0 0 0 0 0 0.25 0"/>
<feBlend mode="normal" in2="BackgroundImageFix" result="effect1_dropShadow_715_12796"/>
<feBlend mode="normal" in="SourceGraphic" in2="effect1_dropShadow_715_12796" result="shape"/>
</filter>
<linearGradient id="paint0_linear_715_12796" x1="187.5" y1="0" x2="187.5" y2="812" gradientUnits="userSpaceOnUse">
<stop stop-color="#001D4C"/>
<stop offset="1" stop-color="#003488"/>
</linearGradient>
<clipPath id="clip0_715_12796">
<rect width="375" height="812" fill="white"/>
</clipPath>
</defs>
</svg>
