<svg width="30" height="21" viewBox="0 0 30 21" fill="none" xmlns="http://www.w3.org/2000/svg">
<path d="M12.6836 13.0721C11.0307 14.5039 10.1016 16.3334 10.1016 17.9688C10.1016 18.4382 10.2004 18.88 10.4263 19.2578H2.51562C1.32812 19.2578 0.835938 18.7891 0.835938 17.8906C0.835938 15.0859 3.66406 11.7578 8.19531 11.7578C9.98044 11.7578 11.5009 12.2726 12.6836 13.0721ZM11.6953 6.35156C11.6953 8.53125 10.1016 10.2188 8.21094 10.2188C6.32031 10.2188 4.71875 8.53125 4.71875 6.36719C4.71875 4.25 6.33594 2.60156 8.21094 2.60156C10.0859 2.60156 11.6953 4.21875 11.6953 6.35156Z" fill="white" fill-opacity="0.85"/>
<path d="M19.8125 9.99219C21.9922 9.99219 23.8203 8.05469 23.8203 5.55469C23.8203 3.10938 21.9766 1.24219 19.8125 1.24219C17.6562 1.24219 15.8125 3.14062 15.8125 5.57031C15.8125 8.05469 17.6406 9.99219 19.8125 9.99219ZM13.3594 19.2578H26.25C27.6953 19.2578 28.2578 18.8438 28.2578 17.9688C28.2578 15.375 25.0156 11.7969 19.8047 11.7969C14.5938 11.7969 11.3516 15.375 11.3516 17.9688C11.3516 18.8438 11.9141 19.2578 13.3594 19.2578Z" fill="white" fill-opacity="0.85"/>
</svg>
