<svg width="16" height="16" viewBox="0 0 16 16" fill="none" xmlns="http://www.w3.org/2000/svg">
<path d="M14.5166 1.10469C14.653 0.967767 14.8738 0.967342 15.0107 1.10371C15.1477 1.24014 15.1482 1.46091 15.0117 1.59785L8.57716 8.05586L15.0615 14.5168C15.1985 14.6532 15.1989 14.874 15.0625 15.0109C14.9261 15.1479 14.7053 15.1483 14.5684 15.0119L8.08399 8.55195L1.59864 15.0627L1.54298 15.1076C1.40735 15.1973 1.22325 15.1829 1.10352 15.0637C0.983803 14.9444 0.968437 14.7602 1.05763 14.6242L1.10255 14.5686L7.5879 8.05781L1.10352 1.59785L1.0586 1.54317C0.968886 1.40751 0.98327 1.22246 1.10255 1.10274C1.22184 0.983341 1.40615 0.9687 1.542 1.05781L1.59766 1.10274L8.08204 7.5627L14.5166 1.10469Z" fill="white"/>
<path d="M14.5166 1.10469L15.0479 1.63405L15.0479 1.63402L14.5166 1.10469ZM15.0107 1.10371L15.5401 0.572384L15.54 0.572267L15.0107 1.10371ZM15.0117 1.59785L15.543 2.12722L15.5431 2.12718L15.0117 1.59785ZM8.57716 8.05586L8.04586 7.5265L7.5165 8.05778L8.04779 8.58715L8.57716 8.05586ZM15.0615 14.5168L14.5322 15.0481L14.5322 15.0481L15.0615 14.5168ZM15.0625 15.0109L15.5938 15.5403L15.5939 15.5402L15.0625 15.0109ZM14.5684 15.0119L15.0977 14.4806L15.0977 14.4806L14.5684 15.0119ZM8.08399 8.55195L8.61332 8.02062L8.08196 7.49126L7.55263 8.02266L8.08399 8.55195ZM1.59864 15.0627L2.06966 15.6463L2.1013 15.6208L2.13001 15.592L1.59864 15.0627ZM1.54298 15.1076L1.9567 15.7332L1.98634 15.7136L2.01399 15.6913L1.54298 15.1076ZM1.10352 15.0637L0.574193 15.595L0.574365 15.5952L1.10352 15.0637ZM1.05763 14.6242L0.473977 14.1532L0.450754 14.182L0.430474 14.2129L1.05763 14.6242ZM1.10255 14.5686L0.571182 14.0393L0.543517 14.067L0.518899 14.0975L1.10255 14.5686ZM7.5879 8.05781L8.11926 8.58711L8.64852 8.05578L8.11723 7.52648L7.5879 8.05781ZM1.10352 1.59785L0.523979 2.07391L0.547709 2.1028L0.574195 2.12918L1.10352 1.59785ZM1.0586 1.54317L0.433035 1.95689L0.454434 1.98924L0.479057 2.01922L1.0586 1.54317ZM1.10255 1.10274L0.571981 0.57264L0.57122 0.573405L1.10255 1.10274ZM1.542 1.05781L2.01301 0.474165L1.98426 0.45096L1.95336 0.430694L1.542 1.05781ZM1.59766 1.10274L2.12699 0.571406L2.0992 0.543722L2.06868 0.519087L1.59766 1.10274ZM8.08204 7.5627L7.55271 8.09403L8.084 8.62332L8.61333 8.09206L8.08204 7.5627ZM14.5166 1.10469L15.0479 1.63402C14.892 1.79053 14.638 1.79098 14.4815 1.63516L15.0107 1.10371L15.54 0.572267C15.1096 0.143701 14.414 0.145004 13.9853 0.575358L14.5166 1.10469ZM15.0107 1.10371L14.4814 1.63504C14.325 1.47925 14.3244 1.22516 14.4804 1.06852L15.0117 1.59785L15.5431 2.12718C15.972 1.69667 15.9703 1.00102 15.5401 0.572384L15.0107 1.10371ZM15.0117 1.59785L14.4804 1.06849L8.04586 7.5265L8.57716 8.05586L9.10845 8.58523L15.543 2.12722L15.0117 1.59785ZM8.57716 8.05586L8.04779 8.58715L14.5322 15.0481L15.0615 14.5168L15.5909 13.9855L9.10653 7.52457L8.57716 8.05586ZM15.0615 14.5168L14.5322 15.0481C14.3758 14.8923 14.3752 14.6382 14.5312 14.4816L15.0625 15.0109L15.5939 15.5402C16.0227 15.1098 16.0211 14.4141 15.5909 13.9855L15.0615 14.5168ZM15.0625 15.0109L14.5312 14.4816C14.687 14.3252 14.9411 14.3245 15.0977 14.4806L14.5684 15.0119L14.039 15.5432C14.4696 15.9721 15.1652 15.9705 15.5938 15.5403L15.0625 15.0109ZM14.5684 15.0119L15.0977 14.4806L8.61332 8.02062L8.08399 8.55195L7.55466 9.08328L14.039 15.5432L14.5684 15.0119ZM8.08399 8.55195L7.55263 8.02266L1.06728 14.5334L1.59864 15.0627L2.13001 15.592L8.61536 9.08125L8.08399 8.55195ZM1.59864 15.0627L1.12763 14.479L1.07196 14.524L1.54298 15.1076L2.01399 15.6913L2.06966 15.6463L1.59864 15.0627ZM1.54298 15.1076L1.12925 14.4821C1.28388 14.3798 1.4947 14.3948 1.63268 14.5322L1.10352 15.0637L0.574365 15.5952C0.95181 15.971 1.53083 16.0148 1.9567 15.7332L1.54298 15.1076ZM1.10352 15.0637L1.63285 14.5323C1.77027 14.6692 1.78689 14.8798 1.68478 15.0355L1.05763 14.6242L0.430474 14.2129C0.149983 14.6406 0.197332 15.2196 0.574193 15.595L1.10352 15.0637ZM1.05763 14.6242L1.64127 15.0952L1.6862 15.0396L1.10255 14.5686L0.518899 14.0975L0.473977 14.1532L1.05763 14.6242ZM1.10255 14.5686L1.63391 15.0978L8.11926 8.58711L7.5879 8.05781L7.05653 7.52852L0.571182 14.0393L1.10255 14.5686ZM7.5879 8.05781L8.11723 7.52648L1.63285 1.06652L1.10352 1.59785L0.574195 2.12918L7.05857 8.58914L7.5879 8.05781ZM1.10352 1.59785L1.68307 1.1218L1.63815 1.06711L1.0586 1.54317L0.479057 2.01922L0.523979 2.07391L1.10352 1.59785ZM1.0586 1.54317L1.68417 1.12944C1.78608 1.28353 1.77181 1.49361 1.63387 1.63207L1.10255 1.10274L0.57122 0.573405C0.19473 0.951314 0.151697 1.53149 0.433035 1.95689L1.0586 1.54317ZM1.10255 1.10274L1.63311 1.63283C1.49436 1.77171 1.28401 1.78554 1.13064 1.68493L1.542 1.05781L1.95336 0.430694C1.52829 0.151861 0.949313 0.194974 0.571982 0.572641L1.10255 1.10274ZM1.542 1.05781L1.07099 1.64146L1.12665 1.68638L1.59766 1.10274L2.06868 0.519087L2.01301 0.474165L1.542 1.05781ZM1.59766 1.10274L1.06834 1.63406L7.55271 8.09403L8.08204 7.5627L8.61137 7.03137L2.12699 0.571406L1.59766 1.10274ZM8.08204 7.5627L8.61333 8.09206L15.0479 1.63405L14.5166 1.10469L13.9853 0.575323L7.55075 7.03333L8.08204 7.5627Z" fill="black"/>
</svg>
