<svg width="21" height="21" viewBox="0 0 21 21" fill="none" xmlns="http://www.w3.org/2000/svg">
<g clip-path="url(#clip0_290_10332)">
<path d="M20.3516 10.1797C20.3516 15.7812 15.7812 20.3516 10.1719 20.3516C4.57031 20.3516 0 15.7812 0 10.1797C0 4.57031 4.57031 0 10.1719 0C15.7812 0 20.3516 4.57031 20.3516 10.1797ZM14.1328 5.08594L4.19531 9.78906C3.59375 10.0781 3.69531 10.9375 4.49219 10.9375L9.02344 10.9453C9.1875 10.9453 9.29688 11.0547 9.29688 11.2266L9.30469 15.7031C9.30469 16.5312 10.1719 16.6016 10.4453 16.0156L15.125 6.07031C15.4609 5.34375 14.8516 4.75 14.1328 5.08594Z" fill="white" fill-opacity="0.85"/>
</g>
<defs>
<clipPath id="clip0_290_10332">
<rect width="20.7578" height="20.3672" fill="white"/>
</clipPath>
</defs>
</svg>
