<svg width="50" height="50" viewBox="0 0 50 50" fill="none" xmlns="http://www.w3.org/2000/svg">
<ellipse cx="24.9107" cy="24.887" rx="24.9107" ry="24.887" fill="#001D4C"/>
<ellipse cx="25.5" cy="24.5" rx="21.5" ry="20.5" fill="white"/>
<path d="M47.5438 24.8956C47.5438 37.0808 37.4883 47.0089 25.1472 47.0089C12.8231 47.0089 2.76782 37.0808 2.76782 24.8956C2.76782 12.7274 12.8231 2.79932 25.1472 2.79932C37.4883 2.79932 47.5438 12.7274 47.5438 24.8956ZM22.7923 13.525C21.6407 13.525 21.0735 13.8135 20.5063 14.4584L19.5437 15.4937C18.9937 16.0707 18.7359 16.2404 17.8249 16.2404H14.8685C12.5652 16.2404 11.3792 17.3774 11.3792 19.6685V31.616C11.3792 33.8732 12.5652 35.0274 14.8685 35.0274H35.4086C37.7119 35.0274 38.9151 33.8732 38.9151 31.616V19.6685C38.9151 17.3774 37.7119 16.2404 35.4086 16.2404H32.3319C31.438 16.2404 31.1458 16.1046 30.613 15.4937L29.6506 14.4584C29.0661 13.8135 28.516 13.525 27.3473 13.525H22.7923ZM31.9537 25.5067C31.9537 29.3251 28.9286 32.244 25.1644 32.244C21.3829 32.244 18.3405 29.2741 18.3405 25.5067C18.3405 21.7899 21.3829 18.786 25.1644 18.786C28.9286 18.786 31.9537 21.7899 31.9537 25.5067ZM20.0938 25.5067C20.0938 28.2898 22.3626 30.5129 25.1472 30.5129C27.9317 30.5129 30.2007 28.2898 30.2007 25.5067C30.2007 22.7403 27.9317 20.5171 25.1472 20.5171C22.3626 20.5171 20.0938 22.7403 20.0938 25.5067ZM36.1307 20.4492C36.1307 21.2298 35.4774 21.8748 34.6696 21.8748C33.8788 21.8748 33.2258 21.2298 33.2258 20.4492C33.2258 19.6346 33.8788 18.9897 34.6696 18.9897C35.4774 18.9897 36.1307 19.6346 36.1307 20.4492Z" fill="#7C7C7C"/>
</svg>
