<svg width="240" height="466" viewBox="0 0 240 466" fill="none" xmlns="http://www.w3.org/2000/svg">
<path d="M191.121 99.4103C286.518 87.3764 394.005 134.888 407.009 222.469C428.122 314.468 277.051 439.983 172.764 449.175C76.3633 463.306 8.21064 386.497 40.9362 285.289L41.3259 284.098C74.9752 182.302 92.9221 112.78 188.871 99.7051L191.121 99.4103ZM93.0599 225.448C85.7835 244.917 78.5595 267.499 69.8778 293.763C55.6876 336.691 64.0098 370.325 81.2738 391.288C98.5641 412.283 128.675 425.316 168.057 419.543L168.914 419.418L169.777 419.341C213.202 415.513 271.188 386.081 316.462 344.696C324.401 337.438 331.757 329.978 338.429 322.436C338.58 320.235 338.533 318.083 338.269 316.002C337.104 306.832 331.617 297.822 317.355 291.403L317.428 291.235C304.738 284.94 296.645 283.209 290.171 284.765C282.994 286.491 275.441 292.857 265.351 309.072C263.181 312.559 258.55 313.593 255.007 311.381C251.466 309.168 250.354 304.548 252.524 301.061C254.522 297.85 256.515 294.851 258.525 292.079C195.004 258.492 154.778 242.257 93.0599 225.448ZM133.985 154.602C127.559 160.547 122.035 167.412 116.992 175.148C110.121 185.691 104.188 197.732 98.5069 211.526C161.572 228.772 202.955 245.636 268.531 280.445C274.005 275.296 279.838 271.807 286.42 270.225C299.627 267.049 313.476 272.152 329.155 280.546C329.637 280.804 330.079 281.108 330.481 281.446C341.46 288.019 348.268 296.681 351.434 306.458C357.663 298.083 362.976 289.705 367.225 281.471C369.676 276.723 371.713 272.145 373.365 267.747C290.466 215.533 239.846 185.805 133.985 154.602ZM193.277 129.38C174.911 131.882 160.562 136.662 148.85 143.55C248.048 173.729 299.222 203.437 377.673 252.772C379.405 243.818 379.322 235.812 377.719 228.828L377.456 227.682L377.284 226.52C372.547 194.62 350.284 167.788 315.335 149.596C280.282 131.349 235.382 123.642 193.277 129.38Z" fill="url(#paint0_linear_518_9500)"/>
<path d="M92.7374 268.516C101.365 253.032 114.319 244.021 126.155 246.964C142.393 251.001 150.377 276.004 143.987 302.811C137.598 329.617 119.255 348.074 103.018 344.037C86.834 340.013 78.8512 315.162 85.1251 288.456C81.2971 307.784 86.8628 325.198 98.0714 327.985C109.761 330.892 123.161 316.789 128 296.485C132.839 276.182 127.286 257.366 115.597 254.46C107.702 252.497 99.0282 258.292 92.7374 268.516Z" fill="url(#paint1_linear_518_9500)"/>
<path d="M103.669 266.905L101.954 277.165L107.645 281.032L100.192 280.866L94.6875 289.677L96.4893 278.806L91.813 275.549L97.5903 275.501L103.669 266.905Z" fill="#F2FF00"/>
<defs>
<linearGradient id="paint0_linear_518_9500" x1="84" y1="282.5" x2="287.951" y2="444.716" gradientUnits="userSpaceOnUse">
<stop stop-color="white"/>
<stop offset="1" stop-color="white" stop-opacity="0"/>
</linearGradient>
<linearGradient id="paint1_linear_518_9500" x1="114.587" y1="246.41" x2="114.587" y2="344.591" gradientUnits="userSpaceOnUse">
<stop stop-color="white"/>
<stop offset="1" stop-color="white" stop-opacity="0"/>
</linearGradient>
</defs>
</svg>
