<svg width="14" height="13" viewBox="0 0 14 13" fill="none" xmlns="http://www.w3.org/2000/svg">
<g clip-path="url(#clip0_1084_13408)">
<path d="M2.08339 13H11.6328C13.0199 13 13.7215 12.2818 13.7215 10.873V2.14367C13.7215 0.734832 13.0199 0.0166016 11.6328 0.0166016H2.08339C0.701608 0.0166016 0 0.729309 0 2.14367V10.873C0 12.2873 0.701608 13 2.08339 13ZM2.00842 12.0221C1.32288 12.0221 0.94797 11.6465 0.94797 10.9172V4.326C0.94797 3.59119 1.32288 3.22103 2.00842 3.22103H11.7023C12.3825 3.22103 12.7682 3.59119 12.7682 4.326V10.9172C12.7682 11.6465 12.3825 12.0221 11.7023 12.0221H2.00842ZM5.49502 5.76246H5.90206C6.13236 5.76246 6.19662 5.69617 6.19662 5.46412V5.04975C6.19662 4.81771 6.13236 4.75693 5.90206 4.75693H5.49502C5.27008 4.75693 5.20581 4.81771 5.20581 5.04975V5.46412C5.20581 5.69617 5.27008 5.76246 5.49502 5.76246ZM7.82481 5.76246H8.23181C8.45674 5.76246 8.52104 5.69617 8.52104 5.46412V5.04975C8.52104 4.81771 8.45674 4.75693 8.23181 4.75693H7.82481C7.59446 4.75693 7.53023 4.81771 7.53023 5.04975V5.46412C7.53023 5.69617 7.59446 5.76246 7.82481 5.76246ZM10.1492 5.76246H10.5562C10.7812 5.76246 10.8508 5.69617 10.8508 5.46412V5.04975C10.8508 4.81771 10.7812 4.75693 10.5562 4.75693H10.1492C9.92427 4.75693 9.85462 4.81771 9.85462 5.04975V5.46412C9.85462 5.69617 9.92427 5.76246 10.1492 5.76246ZM3.17062 8.1216H3.57765C3.8026 8.1216 3.87222 8.06078 3.87222 7.82875V7.4089C3.87222 7.18232 3.8026 7.11605 3.57765 7.11605H3.17062C2.94568 7.11605 2.87605 7.18232 2.87605 7.4089V7.82875C2.87605 8.06078 2.94568 8.1216 3.17062 8.1216ZM5.49502 8.1216H5.90206C6.13236 8.1216 6.19662 8.06078 6.19662 7.82875V7.4089C6.19662 7.18232 6.13236 7.11605 5.90206 7.11605H5.49502C5.27008 7.11605 5.20581 7.18232 5.20581 7.4089V7.82875C5.20581 8.06078 5.27008 8.1216 5.49502 8.1216ZM7.82481 8.1216H8.23181C8.45674 8.1216 8.52104 8.06078 8.52104 7.82875V7.4089C8.52104 7.18232 8.45674 7.11605 8.23181 7.11605H7.82481C7.59446 7.11605 7.53023 7.18232 7.53023 7.4089V7.82875C7.53023 8.06078 7.59446 8.1216 7.82481 8.1216ZM10.1492 8.1216H10.5562C10.7812 8.1216 10.8508 8.06078 10.8508 7.82875V7.4089C10.8508 7.18232 10.7812 7.11605 10.5562 7.11605H10.1492C9.92427 7.11605 9.85462 7.18232 9.85462 7.4089V7.82875C9.85462 8.06078 9.92427 8.1216 10.1492 8.1216ZM3.17062 10.4862H3.57765C3.8026 10.4862 3.87222 10.4255 3.87222 10.1934V9.77351C3.87222 9.54148 3.8026 9.48066 3.57765 9.48066H3.17062C2.94568 9.48066 2.87605 9.54148 2.87605 9.77351V10.1934C2.87605 10.4255 2.94568 10.4862 3.17062 10.4862ZM5.49502 10.4862H5.90206C6.13236 10.4862 6.19662 10.4255 6.19662 10.1934V9.77351C6.19662 9.54148 6.13236 9.48066 5.90206 9.48066H5.49502C5.27008 9.48066 5.20581 9.54148 5.20581 9.77351V10.1934C5.20581 10.4255 5.27008 10.4862 5.49502 10.4862ZM7.82481 10.4862H8.23181C8.45674 10.4862 8.52104 10.4255 8.52104 10.1934V9.77351C8.52104 9.54148 8.45674 9.48066 8.23181 9.48066H7.82481C7.59446 9.48066 7.53023 9.54148 7.53023 9.77351V10.1934C7.53023 10.4255 7.59446 10.4862 7.82481 10.4862Z" fill="white"/>
</g>
<defs>
<clipPath id="clip0_1084_13408">
<rect width="14" height="13" fill="white"/>
</clipPath>
</defs>
</svg>
